<?xml version="1.0" encoding="utf-8"?><svg xmlns="http://www.w3.org/2000/svg" xmlns:xlink="http://www.w3.org/1999/xlink" width="1366" height="625" preserveAspectRatio="xMidYMid" viewBox="0 0 1366 625" style="z-index:1;margin-right:-2px;display:block;background-repeat-y:initial;background-repeat-x:initial;background-color:rgb(255, 255, 255);animation-play-state:paused" ><g transform="translate(683,312.5) scale(1,1) translate(-683,-312.5)" style="transform:matrix(1, 0, 0, 1, 0, 0);animation-play-state:paused" ><linearGradient id="lg-0.6870260329925093" x1="0" x2="1" y1="0" y2="0" style="animation-play-state:paused" ><stop stop-color="#ff00ff" offset="0" style="animation-play-state:paused" ></stop>

  
<stop stop-color="#00ffff" offset="1" style="animation-play-state:paused" ></stop></linearGradient>
<path d="M 0 0 L 0 869.24 Q 136.6 831.867 273.2 803.441 T 546.4 699.008 T 819.6 617.081 T 1092.8 466.013 T 1366 443.409 L 1366 0 Z" fill="url(#lg-0.6870260329925093)" opacity="0.35" style="opacity:0.35;animation-play-state:paused" ></path>
<path d="M 0 0 L 0 882.701 Q 136.6 807.082 273.2 775.516 T 546.4 689.475 T 819.6 532.063 T 1092.8 434.615 T 1366 363.859 L 1366 0 Z" fill="url(#lg-0.6870260329925093)" opacity="0.35" style="opacity:0.35;animation-play-state:paused" ></path>
<path d="M 0 0 L 0 847.194 Q 136.6 867.179 273.2 828.536 T 546.4 672.334 T 819.6 570.744 T 1092.8 505.277 T 1366 367.725 L 1366 0 Z" fill="url(#lg-0.6870260329925093)" opacity="0.35" style="opacity:0.35;animation-play-state:paused" ></path>
<path d="M 0 0 L 0 873.286 Q 136.6 849.868 273.2 814.161 T 546.4 731.634 T 819.6 634.303 T 1092.8 511.569 T 1366 399.926 L 1366 0 Z" fill="url(#lg-0.6870260329925093)" opacity="0.35" style="opacity:0.35;animation-play-state:paused" ></path>
<path d="M 0 0 L 0 926.709 Q 136.6 831.687 273.2 800.169 T 546.4 717.339 T 819.6 576.306 T 1092.8 508.556 T 1366 413.047 L 1366 0 Z" fill="url(#lg-0.6870260329925093)" opacity="0.35" style="opacity:0.35;animation-play-state:paused" ></path></g></svg>